<svg height="1140" width="900" xmlns="http://www.w3.org/2000/svg">
<g transform="translate(0, 0)">
<g transform="translate(25, 10)">
<text>
Project 2 (2023-09-01-2023-10-13)

</text>
</g>
<g transform="translate(0, 25)">
<g transform="translate(0, 0)">
<g>
<g transform="translate(25, 20)">
<g>
<text>
gonzalezjo
</text>
</g>
<g transform="translate(0, 20)">
<image height="100" href="https://avatars.githubusercontent.com/u/22648562?v=4" width="100"/>
</g>
</g>
<g transform="translate(140, 0)">
<g transform="translate(0, 0)">
<svg xmlns="http://www.w3.org/2000/svg">
<path d="M1.643 3.143L.427 1.927A.25.25 0 000 2.104V5.75c0 .138.112.25.25.25h3.646a.25.25 0 00.177-.427L2.715 4.215a6.5 6.5 0 11-1.18 4.458.75.75 0 10-1.493.154 8.001 8.001 0 101.6-5.684zM7.75 4a.75.75 0 01.75.75v2.992l2.028.812a.75.75 0 01-.557 1.392l-2.5-1A.75.75 0 017 8.25v-3.5A.75.75 0 017.75 4z" fill-rule="evenodd"/>
</svg>
<text x="25" y="12.5">
Commit: 15
</text>
</g>
<g transform="translate(0, 25)">
<svg height="15" viewBox="0 0 25 25" width="15" xmlns="http://www.w3.org/2000/svg">
<path d="M24 10h-10v-10h-4v10h-10v4h10v10h4v-10h10z" fill-rule="evenodd"/>
</svg>
<text x="25" y="12.5">
Addition: 670
</text>
</g>
<g transform="translate(0, 50)">
<svg height="15" viewBox="0 0 25 25" width="15" xmlns="http://www.w3.org/2000/svg">
<path d="M0 10h24v4h-24z" fill-rule="evenodd"/>
</svg>
<text x="25" y="12.5">
Deletion: 147
</text>
</g>
<g transform="translate(0, 75)">
<svg xmlns="http://www.w3.org/2000/svg">
<path d="M8 1.5a6.5 6.5 0 100 13 6.5 6.5 0 000-13zM0 8a8 8 0 1116 0A8 8 0 010 8zm9 3a1 1 0 11-2 0 1 1 0 012 0zm-.25-6.25a.75.75 0 00-1.5 0v3.5a.75.75 0 001.5 0v-3.5z" fill-rule="evenodd"/>
</svg>
<text x="25" y="12.5">
Issue: 13
</text>
</g>
<g transform="translate(0, 100)">
<svg xmlns="http://www.w3.org/2000/svg">
<path d="M7.177 3.073L9.573.677A.25.25 0 0110 .854v4.792a.25.25 0 01-.427.177L7.177 3.427a.25.25 0 010-.354zM3.75 2.5a.75.75 0 100 1.5.75.75 0 000-1.5zm-2.25.75a2.25 2.25 0 113 2.122v5.256a2.251 2.251 0 11-1.5 0V5.372A2.25 2.25 0 011.5 3.25zM11 2.5h-1V4h1a1 1 0 011 1v5.628a2.251 2.251 0 101.5 0V5A2.5 2.5 0 0011 2.5zm1 10.25a.75.75 0 111.5 0 .75.75 0 01-1.5 0zM3.75 12a.75.75 0 100 1.5.75.75 0 000-1.5z" fill-rule="evenodd"/>
</svg>
<text x="25" y="12.5">
Pr: 6
</text>
</g>
<g transform="translate(0, 125)">
<svg xmlns="http://www.w3.org/2000/svg">
<path d="M1.75 1h8.5c.966 0 1.75.784 1.75 1.75v5.5A1.75 1.75 0 0 1 10.25 10H7.061l-2.574 2.573A1.458 1.458 0 0 1 2 11.543V10h-.25A1.75 1.75 0 0 1 0 8.25v-5.5C0 1.784.784 1 1.75 1ZM1.5 2.75v5.5c0 .138.112.25.25.25h1a.75.75 0 0 1 .75.75v2.19l2.72-2.72a.749.749 0 0 1 .53-.22h3.5a.25.25 0 0 0 .25-.25v-5.5a.25.25 0 0 0-.25-.25h-8.5a.25.25 0 0 0-.25.25Zm13 2a.25.25 0 0 0-.25-.25h-.5a.75.75 0 0 1 0-1.5h.5c.966 0 1.75.784 1.75 1.75v5.5A1.75 1.75 0 0 1 14.25 12H14v1.543a1.458 1.458 0 0 1-2.487 1.03L9.22 12.28a.749.749 0 0 1 .326-1.275.749.749 0 0 1 .734.215l2.22 2.22v-2.19a.75.75 0 0 1 .75-.75h1a.25.25 0 0 0 .25-.25Z" fill-rule="evenodd"/>
</svg>
<text x="25" y="12.5">
Discussion: 30
</text>
</g>
</g>
</g>
</g>
<g transform="translate(300, 0)">
<g>
<g transform="translate(25, 20)">
<g>
<text>
ruiminggu
</text>
</g>
<g transform="translate(0, 20)">
<image height="100" href="https://github.com/ruiminggu.png" width="100"/>
</g>
</g>
<g transform="translate(140, 0)">
<g transform="translate(0, 0)">
<svg xmlns="http://www.w3.org/2000/svg">
<path d="M1.643 3.143L.427 1.927A.25.25 0 000 2.104V5.75c0 .138.112.25.25.25h3.646a.25.25 0 00.177-.427L2.715 4.215a6.5 6.5 0 11-1.18 4.458.75.75 0 10-1.493.154 8.001 8.001 0 101.6-5.684zM7.75 4a.75.75 0 01.75.75v2.992l2.028.812a.75.75 0 01-.557 1.392l-2.5-1A.75.75 0 017 8.25v-3.5A.75.75 0 017.75 4z" fill-rule="evenodd"/>
</svg>
<text x="25" y="12.5">
Commit: 2
</text>
</g>
<g transform="translate(0, 25)">
<svg height="15" viewBox="0 0 25 25" width="15" xmlns="http://www.w3.org/2000/svg">
<path d="M24 10h-10v-10h-4v10h-10v4h10v10h4v-10h10z" fill-rule="evenodd"/>
</svg>
<text x="25" y="12.5">
Addition: 175
</text>
</g>
<g transform="translate(0, 50)">
<svg height="15" viewBox="0 0 25 25" width="15" xmlns="http://www.w3.org/2000/svg">
<path d="M0 10h24v4h-24z" fill-rule="evenodd"/>
</svg>
<text x="25" y="12.5">
Deletion: 11
</text>
</g>
<g transform="translate(0, 75)">
<svg xmlns="http://www.w3.org/2000/svg">
<path d="M8 1.5a6.5 6.5 0 100 13 6.5 6.5 0 000-13zM0 8a8 8 0 1116 0A8 8 0 010 8zm9 3a1 1 0 11-2 0 1 1 0 012 0zm-.25-6.25a.75.75 0 00-1.5 0v3.5a.75.75 0 001.5 0v-3.5z" fill-rule="evenodd"/>
</svg>
<text x="25" y="12.5">
Issue: 0
</text>
</g>
<g transform="translate(0, 100)">
<svg xmlns="http://www.w3.org/2000/svg">
<path d="M7.177 3.073L9.573.677A.25.25 0 0110 .854v4.792a.25.25 0 01-.427.177L7.177 3.427a.25.25 0 010-.354zM3.75 2.5a.75.75 0 100 1.5.75.75 0 000-1.5zm-2.25.75a2.25 2.25 0 113 2.122v5.256a2.251 2.251 0 11-1.5 0V5.372A2.25 2.25 0 011.5 3.25zM11 2.5h-1V4h1a1 1 0 011 1v5.628a2.251 2.251 0 101.5 0V5A2.5 2.5 0 0011 2.5zm1 10.25a.75.75 0 111.5 0 .75.75 0 01-1.5 0zM3.75 12a.75.75 0 100 1.5.75.75 0 000-1.5z" fill-rule="evenodd"/>
</svg>
<text x="25" y="12.5">
Pr: 4
</text>
</g>
<g transform="translate(0, 125)">
<svg xmlns="http://www.w3.org/2000/svg">
<path d="M1.75 1h8.5c.966 0 1.75.784 1.75 1.75v5.5A1.75 1.75 0 0 1 10.25 10H7.061l-2.574 2.573A1.458 1.458 0 0 1 2 11.543V10h-.25A1.75 1.75 0 0 1 0 8.25v-5.5C0 1.784.784 1 1.75 1ZM1.5 2.75v5.5c0 .138.112.25.25.25h1a.75.75 0 0 1 .75.75v2.19l2.72-2.72a.749.749 0 0 1 .53-.22h3.5a.25.25 0 0 0 .25-.25v-5.5a.25.25 0 0 0-.25-.25h-8.5a.25.25 0 0 0-.25.25Zm13 2a.25.25 0 0 0-.25-.25h-.5a.75.75 0 0 1 0-1.5h.5c.966 0 1.75.784 1.75 1.75v5.5A1.75 1.75 0 0 1 14.25 12H14v1.543a1.458 1.458 0 0 1-2.487 1.03L9.22 12.28a.749.749 0 0 1 .326-1.275.749.749 0 0 1 .734.215l2.22 2.22v-2.19a.75.75 0 0 1 .75-.75h1a.25.25 0 0 0 .25-.25Z" fill-rule="evenodd"/>
</svg>
<text x="25" y="12.5">
Discussion: 2
</text>
</g>
</g>
</g>
</g>
<g transform="translate(600, 0)">
<g>
<g transform="translate(25, 20)">
<g>
<text>
zhijinwuu
</text>
</g>
<g transform="translate(0, 20)">
<image height="100" href="https://github.com/zhijinwuu.png" width="100"/>
</g>
</g>
<g transform="translate(140, 0)">
<g transform="translate(0, 0)">
<svg xmlns="http://www.w3.org/2000/svg">
<path d="M1.643 3.143L.427 1.927A.25.25 0 000 2.104V5.75c0 .138.112.25.25.25h3.646a.25.25 0 00.177-.427L2.715 4.215a6.5 6.5 0 11-1.18 4.458.75.75 0 10-1.493.154 8.001 8.001 0 101.6-5.684zM7.75 4a.75.75 0 01.75.75v2.992l2.028.812a.75.75 0 01-.557 1.392l-2.5-1A.75.75 0 017 8.25v-3.5A.75.75 0 017.75 4z" fill-rule="evenodd"/>
</svg>
<text x="25" y="12.5">
Commit: 2
</text>
</g>
<g transform="translate(0, 25)">
<svg height="15" viewBox="0 0 25 25" width="15" xmlns="http://www.w3.org/2000/svg">
<path d="M24 10h-10v-10h-4v10h-10v4h10v10h4v-10h10z" fill-rule="evenodd"/>
</svg>
<text x="25" y="12.5">
Addition: 53
</text>
</g>
<g transform="translate(0, 50)">
<svg height="15" viewBox="0 0 25 25" width="15" xmlns="http://www.w3.org/2000/svg">
<path d="M0 10h24v4h-24z" fill-rule="evenodd"/>
</svg>
<text x="25" y="12.5">
Deletion: 11
</text>
</g>
<g transform="translate(0, 75)">
<svg xmlns="http://www.w3.org/2000/svg">
<path d="M8 1.5a6.5 6.5 0 100 13 6.5 6.5 0 000-13zM0 8a8 8 0 1116 0A8 8 0 010 8zm9 3a1 1 0 11-2 0 1 1 0 012 0zm-.25-6.25a.75.75 0 00-1.5 0v3.5a.75.75 0 001.5 0v-3.5z" fill-rule="evenodd"/>
</svg>
<text x="25" y="12.5">
Issue: 2
</text>
</g>
<g transform="translate(0, 100)">
<svg xmlns="http://www.w3.org/2000/svg">
<path d="M7.177 3.073L9.573.677A.25.25 0 0110 .854v4.792a.25.25 0 01-.427.177L7.177 3.427a.25.25 0 010-.354zM3.75 2.5a.75.75 0 100 1.5.75.75 0 000-1.5zm-2.25.75a2.25 2.25 0 113 2.122v5.256a2.251 2.251 0 11-1.5 0V5.372A2.25 2.25 0 011.5 3.25zM11 2.5h-1V4h1a1 1 0 011 1v5.628a2.251 2.251 0 101.5 0V5A2.5 2.5 0 0011 2.5zm1 10.25a.75.75 0 111.5 0 .75.75 0 01-1.5 0zM3.75 12a.75.75 0 100 1.5.75.75 0 000-1.5z" fill-rule="evenodd"/>
</svg>
<text x="25" y="12.5">
Pr: 3
</text>
</g>
<g transform="translate(0, 125)">
<svg xmlns="http://www.w3.org/2000/svg">
<path d="M1.75 1h8.5c.966 0 1.75.784 1.75 1.75v5.5A1.75 1.75 0 0 1 10.25 10H7.061l-2.574 2.573A1.458 1.458 0 0 1 2 11.543V10h-.25A1.75 1.75 0 0 1 0 8.25v-5.5C0 1.784.784 1 1.75 1ZM1.5 2.75v5.5c0 .138.112.25.25.25h1a.75.75 0 0 1 .75.75v2.19l2.72-2.72a.749.749 0 0 1 .53-.22h3.5a.25.25 0 0 0 .25-.25v-5.5a.25.25 0 0 0-.25-.25h-8.5a.25.25 0 0 0-.25.25Zm13 2a.25.25 0 0 0-.25-.25h-.5a.75.75 0 0 1 0-1.5h.5c.966 0 1.75.784 1.75 1.75v5.5A1.75 1.75 0 0 1 14.25 12H14v1.543a1.458 1.458 0 0 1-2.487 1.03L9.22 12.28a.749.749 0 0 1 .326-1.275.749.749 0 0 1 .734.215l2.22 2.22v-2.19a.75.75 0 0 1 .75-.75h1a.25.25 0 0 0 .25-.25Z" fill-rule="evenodd"/>
</svg>
<text x="25" y="12.5">
Discussion: 0
</text>
</g>
</g>
</g>
</g>
<g transform="translate(0, 170)">
<g>
<g transform="translate(25, 20)">
<g>
<text>
Noor-5
</text>
</g>
<g transform="translate(0, 20)">
<image height="100" href="https://github.com/Noor-5.png" width="100"/>
</g>
</g>
<g transform="translate(140, 0)">
<g transform="translate(0, 0)">
<svg xmlns="http://www.w3.org/2000/svg">
<path d="M1.643 3.143L.427 1.927A.25.25 0 000 2.104V5.75c0 .138.112.25.25.25h3.646a.25.25 0 00.177-.427L2.715 4.215a6.5 6.5 0 11-1.18 4.458.75.75 0 10-1.493.154 8.001 8.001 0 101.6-5.684zM7.75 4a.75.75 0 01.75.75v2.992l2.028.812a.75.75 0 01-.557 1.392l-2.5-1A.75.75 0 017 8.25v-3.5A.75.75 0 017.75 4z" fill-rule="evenodd"/>
</svg>
<text x="25" y="12.5">
Commit: 1
</text>
</g>
<g transform="translate(0, 25)">
<svg height="15" viewBox="0 0 25 25" width="15" xmlns="http://www.w3.org/2000/svg">
<path d="M24 10h-10v-10h-4v10h-10v4h10v10h4v-10h10z" fill-rule="evenodd"/>
</svg>
<text x="25" y="12.5">
Addition: 4
</text>
</g>
<g transform="translate(0, 50)">
<svg height="15" viewBox="0 0 25 25" width="15" xmlns="http://www.w3.org/2000/svg">
<path d="M0 10h24v4h-24z" fill-rule="evenodd"/>
</svg>
<text x="25" y="12.5">
Deletion: 0
</text>
</g>
<g transform="translate(0, 75)">
<svg xmlns="http://www.w3.org/2000/svg">
<path d="M8 1.5a6.5 6.5 0 100 13 6.5 6.5 0 000-13zM0 8a8 8 0 1116 0A8 8 0 010 8zm9 3a1 1 0 11-2 0 1 1 0 012 0zm-.25-6.25a.75.75 0 00-1.5 0v3.5a.75.75 0 001.5 0v-3.5z" fill-rule="evenodd"/>
</svg>
<text x="25" y="12.5">
Issue: 8
</text>
</g>
<g transform="translate(0, 100)">
<svg xmlns="http://www.w3.org/2000/svg">
<path d="M7.177 3.073L9.573.677A.25.25 0 0110 .854v4.792a.25.25 0 01-.427.177L7.177 3.427a.25.25 0 010-.354zM3.75 2.5a.75.75 0 100 1.5.75.75 0 000-1.5zm-2.25.75a2.25 2.25 0 113 2.122v5.256a2.251 2.251 0 11-1.5 0V5.372A2.25 2.25 0 011.5 3.25zM11 2.5h-1V4h1a1 1 0 011 1v5.628a2.251 2.251 0 101.5 0V5A2.5 2.5 0 0011 2.5zm1 10.25a.75.75 0 111.5 0 .75.75 0 01-1.5 0zM3.75 12a.75.75 0 100 1.5.75.75 0 000-1.5z" fill-rule="evenodd"/>
</svg>
<text x="25" y="12.5">
Pr: 4
</text>
</g>
<g transform="translate(0, 125)">
<svg xmlns="http://www.w3.org/2000/svg">
<path d="M1.75 1h8.5c.966 0 1.75.784 1.75 1.75v5.5A1.75 1.75 0 0 1 10.25 10H7.061l-2.574 2.573A1.458 1.458 0 0 1 2 11.543V10h-.25A1.75 1.75 0 0 1 0 8.25v-5.5C0 1.784.784 1 1.75 1ZM1.5 2.75v5.5c0 .138.112.25.25.25h1a.75.75 0 0 1 .75.75v2.19l2.72-2.72a.749.749 0 0 1 .53-.22h3.5a.25.25 0 0 0 .25-.25v-5.5a.25.25 0 0 0-.25-.25h-8.5a.25.25 0 0 0-.25.25Zm13 2a.25.25 0 0 0-.25-.25h-.5a.75.75 0 0 1 0-1.5h.5c.966 0 1.75.784 1.75 1.75v5.5A1.75 1.75 0 0 1 14.25 12H14v1.543a1.458 1.458 0 0 1-2.487 1.03L9.22 12.28a.749.749 0 0 1 .326-1.275.749.749 0 0 1 .734.215l2.22 2.22v-2.19a.75.75 0 0 1 .75-.75h1a.25.25 0 0 0 .25-.25Z" fill-rule="evenodd"/>
</svg>
<text x="25" y="12.5">
Discussion: 4
</text>
</g>
</g>
</g>
</g>
<g transform="translate(300, 170)">
<g>
<g transform="translate(25, 20)">
<g>
<text>
coveralls
</text>
</g>
<g transform="translate(0, 20)">
<image height="100" href="https://github.com/coveralls.png" width="100"/>
</g>
</g>
<g transform="translate(140, 0)">
<g transform="translate(0, 0)">
<svg xmlns="http://www.w3.org/2000/svg">
<path d="M1.643 3.143L.427 1.927A.25.25 0 000 2.104V5.75c0 .138.112.25.25.25h3.646a.25.25 0 00.177-.427L2.715 4.215a6.5 6.5 0 11-1.18 4.458.75.75 0 10-1.493.154 8.001 8.001 0 101.6-5.684zM7.75 4a.75.75 0 01.75.75v2.992l2.028.812a.75.75 0 01-.557 1.392l-2.5-1A.75.75 0 017 8.25v-3.5A.75.75 0 017.75 4z" fill-rule="evenodd"/>
</svg>
<text x="25" y="12.5">
Commit: 0
</text>
</g>
<g transform="translate(0, 25)">
<svg height="15" viewBox="0 0 25 25" width="15" xmlns="http://www.w3.org/2000/svg">
<path d="M24 10h-10v-10h-4v10h-10v4h10v10h4v-10h10z" fill-rule="evenodd"/>
</svg>
<text x="25" y="12.5">
Addition: 0
</text>
</g>
<g transform="translate(0, 50)">
<svg height="15" viewBox="0 0 25 25" width="15" xmlns="http://www.w3.org/2000/svg">
<path d="M0 10h24v4h-24z" fill-rule="evenodd"/>
</svg>
<text x="25" y="12.5">
Deletion: 0
</text>
</g>
<g transform="translate(0, 75)">
<svg xmlns="http://www.w3.org/2000/svg">
<path d="M8 1.5a6.5 6.5 0 100 13 6.5 6.5 0 000-13zM0 8a8 8 0 1116 0A8 8 0 010 8zm9 3a1 1 0 11-2 0 1 1 0 012 0zm-.25-6.25a.75.75 0 00-1.5 0v3.5a.75.75 0 001.5 0v-3.5z" fill-rule="evenodd"/>
</svg>
<text x="25" y="12.5">
Issue: 0
</text>
</g>
<g transform="translate(0, 100)">
<svg xmlns="http://www.w3.org/2000/svg">
<path d="M7.177 3.073L9.573.677A.25.25 0 0110 .854v4.792a.25.25 0 01-.427.177L7.177 3.427a.25.25 0 010-.354zM3.75 2.5a.75.75 0 100 1.5.75.75 0 000-1.5zm-2.25.75a2.25 2.25 0 113 2.122v5.256a2.251 2.251 0 11-1.5 0V5.372A2.25 2.25 0 011.5 3.25zM11 2.5h-1V4h1a1 1 0 011 1v5.628a2.251 2.251 0 101.5 0V5A2.5 2.5 0 0011 2.5zm1 10.25a.75.75 0 111.5 0 .75.75 0 01-1.5 0zM3.75 12a.75.75 0 100 1.5.75.75 0 000-1.5z" fill-rule="evenodd"/>
</svg>
<text x="25" y="12.5">
Pr: 0
</text>
</g>
<g transform="translate(0, 125)">
<svg xmlns="http://www.w3.org/2000/svg">
<path d="M1.75 1h8.5c.966 0 1.75.784 1.75 1.75v5.5A1.75 1.75 0 0 1 10.25 10H7.061l-2.574 2.573A1.458 1.458 0 0 1 2 11.543V10h-.25A1.75 1.75 0 0 1 0 8.25v-5.5C0 1.784.784 1 1.75 1ZM1.5 2.75v5.5c0 .138.112.25.25.25h1a.75.75 0 0 1 .75.75v2.19l2.72-2.72a.749.749 0 0 1 .53-.22h3.5a.25.25 0 0 0 .25-.25v-5.5a.25.25 0 0 0-.25-.25h-8.5a.25.25 0 0 0-.25.25Zm13 2a.25.25 0 0 0-.25-.25h-.5a.75.75 0 0 1 0-1.5h.5c.966 0 1.75.784 1.75 1.75v5.5A1.75 1.75 0 0 1 14.25 12H14v1.543a1.458 1.458 0 0 1-2.487 1.03L9.22 12.28a.749.749 0 0 1 .326-1.275.749.749 0 0 1 .734.215l2.22 2.22v-2.19a.75.75 0 0 1 .75-.75h1a.25.25 0 0 0 .25-.25Z" fill-rule="evenodd"/>
</svg>
<text x="25" y="12.5">
Discussion: 7
</text>
</g>
</g>
</g>
</g>
</g>
</g>
<g transform="translate(0, 370)">
<g transform="translate(25, 10)">
<text>
Project 3 (2023-10-13-2023-11-02)

</text>
</g>
<g transform="translate(0, 25)">
<g transform="translate(0, 0)">
<g>
<g transform="translate(25, 20)">
<g>
<text>
gonzalezjo
</text>
</g>
<g transform="translate(0, 20)">
<image height="100" href="https://github.com/gonzalezjo.png" width="100"/>
</g>
</g>
<g transform="translate(140, 0)">
<g transform="translate(0, 0)">
<svg xmlns="http://www.w3.org/2000/svg">
<path d="M1.643 3.143L.427 1.927A.25.25 0 000 2.104V5.75c0 .138.112.25.25.25h3.646a.25.25 0 00.177-.427L2.715 4.215a6.5 6.5 0 11-1.18 4.458.75.75 0 10-1.493.154 8.001 8.001 0 101.6-5.684zM7.75 4a.75.75 0 01.75.75v2.992l2.028.812a.75.75 0 01-.557 1.392l-2.5-1A.75.75 0 017 8.25v-3.5A.75.75 0 017.75 4z" fill-rule="evenodd"/>
</svg>
<text x="25" y="12.5">
Commit: 16
</text>
</g>
<g transform="translate(0, 25)">
<svg height="15" viewBox="0 0 25 25" width="15" xmlns="http://www.w3.org/2000/svg">
<path d="M24 10h-10v-10h-4v10h-10v4h10v10h4v-10h10z" fill-rule="evenodd"/>
</svg>
<text x="25" y="12.5">
Addition: 298
</text>
</g>
<g transform="translate(0, 50)">
<svg height="15" viewBox="0 0 25 25" width="15" xmlns="http://www.w3.org/2000/svg">
<path d="M0 10h24v4h-24z" fill-rule="evenodd"/>
</svg>
<text x="25" y="12.5">
Deletion: 279
</text>
</g>
<g transform="translate(0, 75)">
<svg xmlns="http://www.w3.org/2000/svg">
<path d="M8 1.5a6.5 6.5 0 100 13 6.5 6.5 0 000-13zM0 8a8 8 0 1116 0A8 8 0 010 8zm9 3a1 1 0 11-2 0 1 1 0 012 0zm-.25-6.25a.75.75 0 00-1.5 0v3.5a.75.75 0 001.5 0v-3.5z" fill-rule="evenodd"/>
</svg>
<text x="25" y="12.5">
Issue: 0
</text>
</g>
<g transform="translate(0, 100)">
<svg xmlns="http://www.w3.org/2000/svg">
<path d="M7.177 3.073L9.573.677A.25.25 0 0110 .854v4.792a.25.25 0 01-.427.177L7.177 3.427a.25.25 0 010-.354zM3.75 2.5a.75.75 0 100 1.5.75.75 0 000-1.5zm-2.25.75a2.25 2.25 0 113 2.122v5.256a2.251 2.251 0 11-1.5 0V5.372A2.25 2.25 0 011.5 3.25zM11 2.5h-1V4h1a1 1 0 011 1v5.628a2.251 2.251 0 101.5 0V5A2.5 2.5 0 0011 2.5zm1 10.25a.75.75 0 111.5 0 .75.75 0 01-1.5 0zM3.75 12a.75.75 0 100 1.5.75.75 0 000-1.5z" fill-rule="evenodd"/>
</svg>
<text x="25" y="12.5">
Pr: 6
</text>
</g>
<g transform="translate(0, 125)">
<svg xmlns="http://www.w3.org/2000/svg">
<path d="M1.75 1h8.5c.966 0 1.75.784 1.75 1.75v5.5A1.75 1.75 0 0 1 10.25 10H7.061l-2.574 2.573A1.458 1.458 0 0 1 2 11.543V10h-.25A1.75 1.75 0 0 1 0 8.25v-5.5C0 1.784.784 1 1.75 1ZM1.5 2.75v5.5c0 .138.112.25.25.25h1a.75.75 0 0 1 .75.75v2.19l2.72-2.72a.749.749 0 0 1 .53-.22h3.5a.25.25 0 0 0 .25-.25v-5.5a.25.25 0 0 0-.25-.25h-8.5a.25.25 0 0 0-.25.25Zm13 2a.25.25 0 0 0-.25-.25h-.5a.75.75 0 0 1 0-1.5h.5c.966 0 1.75.784 1.75 1.75v5.5A1.75 1.75 0 0 1 14.25 12H14v1.543a1.458 1.458 0 0 1-2.487 1.03L9.22 12.28a.749.749 0 0 1 .326-1.275.749.749 0 0 1 .734.215l2.22 2.22v-2.19a.75.75 0 0 1 .75-.75h1a.25.25 0 0 0 .25-.25Z" fill-rule="evenodd"/>
</svg>
<text x="25" y="12.5">
Discussion: 0
</text>
</g>
</g>
</g>
</g>
<g transform="translate(300, 0)">
<g>
<g transform="translate(25, 20)">
<g>
<text>
snyk-bot
</text>
</g>
<g transform="translate(0, 20)">
<image height="100" href="https://github.com/snyk-bot.png" width="100"/>
</g>
</g>
<g transform="translate(140, 0)">
<g transform="translate(0, 0)">
<svg xmlns="http://www.w3.org/2000/svg">
<path d="M1.643 3.143L.427 1.927A.25.25 0 000 2.104V5.75c0 .138.112.25.25.25h3.646a.25.25 0 00.177-.427L2.715 4.215a6.5 6.5 0 11-1.18 4.458.75.75 0 10-1.493.154 8.001 8.001 0 101.6-5.684zM7.75 4a.75.75 0 01.75.75v2.992l2.028.812a.75.75 0 01-.557 1.392l-2.5-1A.75.75 0 017 8.25v-3.5A.75.75 0 017.75 4z" fill-rule="evenodd"/>
</svg>
<text x="25" y="12.5">
Commit: 1
</text>
</g>
<g transform="translate(0, 25)">
<svg height="15" viewBox="0 0 25 25" width="15" xmlns="http://www.w3.org/2000/svg">
<path d="M24 10h-10v-10h-4v10h-10v4h10v10h4v-10h10z" fill-rule="evenodd"/>
</svg>
<text x="25" y="12.5">
Addition: 8
</text>
</g>
<g transform="translate(0, 50)">
<svg height="15" viewBox="0 0 25 25" width="15" xmlns="http://www.w3.org/2000/svg">
<path d="M0 10h24v4h-24z" fill-rule="evenodd"/>
</svg>
<text x="25" y="12.5">
Deletion: 8
</text>
</g>
<g transform="translate(0, 75)">
<svg xmlns="http://www.w3.org/2000/svg">
<path d="M8 1.5a6.5 6.5 0 100 13 6.5 6.5 0 000-13zM0 8a8 8 0 1116 0A8 8 0 010 8zm9 3a1 1 0 11-2 0 1 1 0 012 0zm-.25-6.25a.75.75 0 00-1.5 0v3.5a.75.75 0 001.5 0v-3.5z" fill-rule="evenodd"/>
</svg>
<text x="25" y="12.5">
Issue: 0
</text>
</g>
<g transform="translate(0, 100)">
<svg xmlns="http://www.w3.org/2000/svg">
<path d="M7.177 3.073L9.573.677A.25.25 0 0110 .854v4.792a.25.25 0 01-.427.177L7.177 3.427a.25.25 0 010-.354zM3.75 2.5a.75.75 0 100 1.5.75.75 0 000-1.5zm-2.25.75a2.25 2.25 0 113 2.122v5.256a2.251 2.251 0 11-1.5 0V5.372A2.25 2.25 0 011.5 3.25zM11 2.5h-1V4h1a1 1 0 011 1v5.628a2.251 2.251 0 101.5 0V5A2.5 2.5 0 0011 2.5zm1 10.25a.75.75 0 111.5 0 .75.75 0 01-1.5 0zM3.75 12a.75.75 0 100 1.5.75.75 0 000-1.5z" fill-rule="evenodd"/>
</svg>
<text x="25" y="12.5">
Pr: 0
</text>
</g>
<g transform="translate(0, 125)">
<svg xmlns="http://www.w3.org/2000/svg">
<path d="M1.75 1h8.5c.966 0 1.75.784 1.75 1.75v5.5A1.75 1.75 0 0 1 10.25 10H7.061l-2.574 2.573A1.458 1.458 0 0 1 2 11.543V10h-.25A1.75 1.75 0 0 1 0 8.25v-5.5C0 1.784.784 1 1.75 1ZM1.5 2.75v5.5c0 .138.112.25.25.25h1a.75.75 0 0 1 .75.75v2.19l2.72-2.72a.749.749 0 0 1 .53-.22h3.5a.25.25 0 0 0 .25-.25v-5.5a.25.25 0 0 0-.25-.25h-8.5a.25.25 0 0 0-.25.25Zm13 2a.25.25 0 0 0-.25-.25h-.5a.75.75 0 0 1 0-1.5h.5c.966 0 1.75.784 1.75 1.75v5.5A1.75 1.75 0 0 1 14.25 12H14v1.543a1.458 1.458 0 0 1-2.487 1.03L9.22 12.28a.749.749 0 0 1 .326-1.275.749.749 0 0 1 .734.215l2.22 2.22v-2.19a.75.75 0 0 1 .75-.75h1a.25.25 0 0 0 .25-.25Z" fill-rule="evenodd"/>
</svg>
<text x="25" y="12.5">
Discussion: 0
</text>
</g>
</g>
</g>
</g>
<g transform="translate(600, 0)">
<g>
<g transform="translate(25, 20)">
<g>
<text>
ruiminggu
</text>
</g>
<g transform="translate(0, 20)">
<image height="100" href="https://github.com/ruiminggu.png" width="100"/>
</g>
</g>
<g transform="translate(140, 0)">
<g transform="translate(0, 0)">
<svg xmlns="http://www.w3.org/2000/svg">
<path d="M1.643 3.143L.427 1.927A.25.25 0 000 2.104V5.75c0 .138.112.25.25.25h3.646a.25.25 0 00.177-.427L2.715 4.215a6.5 6.5 0 11-1.18 4.458.75.75 0 10-1.493.154 8.001 8.001 0 101.6-5.684zM7.75 4a.75.75 0 01.75.75v2.992l2.028.812a.75.75 0 01-.557 1.392l-2.5-1A.75.75 0 017 8.25v-3.5A.75.75 0 017.75 4z" fill-rule="evenodd"/>
</svg>
<text x="25" y="12.5">
Commit: 0
</text>
</g>
<g transform="translate(0, 25)">
<svg height="15" viewBox="0 0 25 25" width="15" xmlns="http://www.w3.org/2000/svg">
<path d="M24 10h-10v-10h-4v10h-10v4h10v10h4v-10h10z" fill-rule="evenodd"/>
</svg>
<text x="25" y="12.5">
Addition: 0
</text>
</g>
<g transform="translate(0, 50)">
<svg height="15" viewBox="0 0 25 25" width="15" xmlns="http://www.w3.org/2000/svg">
<path d="M0 10h24v4h-24z" fill-rule="evenodd"/>
</svg>
<text x="25" y="12.5">
Deletion: 0
</text>
</g>
<g transform="translate(0, 75)">
<svg xmlns="http://www.w3.org/2000/svg">
<path d="M8 1.5a6.5 6.5 0 100 13 6.5 6.5 0 000-13zM0 8a8 8 0 1116 0A8 8 0 010 8zm9 3a1 1 0 11-2 0 1 1 0 012 0zm-.25-6.25a.75.75 0 00-1.5 0v3.5a.75.75 0 001.5 0v-3.5z" fill-rule="evenodd"/>
</svg>
<text x="25" y="12.5">
Issue: 0
</text>
</g>
<g transform="translate(0, 100)">
<svg xmlns="http://www.w3.org/2000/svg">
<path d="M7.177 3.073L9.573.677A.25.25 0 0110 .854v4.792a.25.25 0 01-.427.177L7.177 3.427a.25.25 0 010-.354zM3.75 2.5a.75.75 0 100 1.5.75.75 0 000-1.5zm-2.25.75a2.25 2.25 0 113 2.122v5.256a2.251 2.251 0 11-1.5 0V5.372A2.25 2.25 0 011.5 3.25zM11 2.5h-1V4h1a1 1 0 011 1v5.628a2.251 2.251 0 101.5 0V5A2.5 2.5 0 0011 2.5zm1 10.25a.75.75 0 111.5 0 .75.75 0 01-1.5 0zM3.75 12a.75.75 0 100 1.5.75.75 0 000-1.5z" fill-rule="evenodd"/>
</svg>
<text x="25" y="12.5">
Pr: 1
</text>
</g>
<g transform="translate(0, 125)">
<svg xmlns="http://www.w3.org/2000/svg">
<path d="M1.75 1h8.5c.966 0 1.75.784 1.75 1.75v5.5A1.75 1.75 0 0 1 10.25 10H7.061l-2.574 2.573A1.458 1.458 0 0 1 2 11.543V10h-.25A1.75 1.75 0 0 1 0 8.25v-5.5C0 1.784.784 1 1.75 1ZM1.5 2.75v5.5c0 .138.112.25.25.25h1a.75.75 0 0 1 .75.75v2.19l2.72-2.72a.749.749 0 0 1 .53-.22h3.5a.25.25 0 0 0 .25-.25v-5.5a.25.25 0 0 0-.25-.25h-8.5a.25.25 0 0 0-.25.25Zm13 2a.25.25 0 0 0-.25-.25h-.5a.75.75 0 0 1 0-1.5h.5c.966 0 1.75.784 1.75 1.75v5.5A1.75 1.75 0 0 1 14.25 12H14v1.543a1.458 1.458 0 0 1-2.487 1.03L9.22 12.28a.749.749 0 0 1 .326-1.275.749.749 0 0 1 .734.215l2.22 2.22v-2.19a.75.75 0 0 1 .75-.75h1a.25.25 0 0 0 .25-.25Z" fill-rule="evenodd"/>
</svg>
<text x="25" y="12.5">
Discussion: 0
</text>
</g>
</g>
</g>
</g>
<g transform="translate(0, 170)">
<g>
<g transform="translate(25, 20)">
<g>
<text>
Noor-5
</text>
</g>
<g transform="translate(0, 20)">
<image height="100" href="https://github.com/Noor-5.png" width="100"/>
</g>
</g>
<g transform="translate(140, 0)">
<g transform="translate(0, 0)">
<svg xmlns="http://www.w3.org/2000/svg">
<path d="M1.643 3.143L.427 1.927A.25.25 0 000 2.104V5.75c0 .138.112.25.25.25h3.646a.25.25 0 00.177-.427L2.715 4.215a6.5 6.5 0 11-1.18 4.458.75.75 0 10-1.493.154 8.001 8.001 0 101.6-5.684zM7.75 4a.75.75 0 01.75.75v2.992l2.028.812a.75.75 0 01-.557 1.392l-2.5-1A.75.75 0 017 8.25v-3.5A.75.75 0 017.75 4z" fill-rule="evenodd"/>
</svg>
<text x="25" y="12.5">
Commit: 0
</text>
</g>
<g transform="translate(0, 25)">
<svg height="15" viewBox="0 0 25 25" width="15" xmlns="http://www.w3.org/2000/svg">
<path d="M24 10h-10v-10h-4v10h-10v4h10v10h4v-10h10z" fill-rule="evenodd"/>
</svg>
<text x="25" y="12.5">
Addition: 0
</text>
</g>
<g transform="translate(0, 50)">
<svg height="15" viewBox="0 0 25 25" width="15" xmlns="http://www.w3.org/2000/svg">
<path d="M0 10h24v4h-24z" fill-rule="evenodd"/>
</svg>
<text x="25" y="12.5">
Deletion: 0
</text>
</g>
<g transform="translate(0, 75)">
<svg xmlns="http://www.w3.org/2000/svg">
<path d="M8 1.5a6.5 6.5 0 100 13 6.5 6.5 0 000-13zM0 8a8 8 0 1116 0A8 8 0 010 8zm9 3a1 1 0 11-2 0 1 1 0 012 0zm-.25-6.25a.75.75 0 00-1.5 0v3.5a.75.75 0 001.5 0v-3.5z" fill-rule="evenodd"/>
</svg>
<text x="25" y="12.5">
Issue: 0
</text>
</g>
<g transform="translate(0, 100)">
<svg xmlns="http://www.w3.org/2000/svg">
<path d="M7.177 3.073L9.573.677A.25.25 0 0110 .854v4.792a.25.25 0 01-.427.177L7.177 3.427a.25.25 0 010-.354zM3.75 2.5a.75.75 0 100 1.5.75.75 0 000-1.5zm-2.25.75a2.25 2.25 0 113 2.122v5.256a2.251 2.251 0 11-1.5 0V5.372A2.25 2.25 0 011.5 3.25zM11 2.5h-1V4h1a1 1 0 011 1v5.628a2.251 2.251 0 101.5 0V5A2.5 2.5 0 0011 2.5zm1 10.25a.75.75 0 111.5 0 .75.75 0 01-1.5 0zM3.75 12a.75.75 0 100 1.5.75.75 0 000-1.5z" fill-rule="evenodd"/>
</svg>
<text x="25" y="12.5">
Pr: 1
</text>
</g>
<g transform="translate(0, 125)">
<svg xmlns="http://www.w3.org/2000/svg">
<path d="M1.75 1h8.5c.966 0 1.75.784 1.75 1.75v5.5A1.75 1.75 0 0 1 10.25 10H7.061l-2.574 2.573A1.458 1.458 0 0 1 2 11.543V10h-.25A1.75 1.75 0 0 1 0 8.25v-5.5C0 1.784.784 1 1.75 1ZM1.5 2.75v5.5c0 .138.112.25.25.25h1a.75.75 0 0 1 .75.75v2.19l2.72-2.72a.749.749 0 0 1 .53-.22h3.5a.25.25 0 0 0 .25-.25v-5.5a.25.25 0 0 0-.25-.25h-8.5a.25.25 0 0 0-.25.25Zm13 2a.25.25 0 0 0-.25-.25h-.5a.75.75 0 0 1 0-1.5h.5c.966 0 1.75.784 1.75 1.75v5.5A1.75 1.75 0 0 1 14.25 12H14v1.543a1.458 1.458 0 0 1-2.487 1.03L9.22 12.28a.749.749 0 0 1 .326-1.275.749.749 0 0 1 .734.215l2.22 2.22v-2.19a.75.75 0 0 1 .75-.75h1a.25.25 0 0 0 .25-.25Z" fill-rule="evenodd"/>
</svg>
<text x="25" y="12.5">
Discussion: 1
</text>
</g>
</g>
</g>
</g>
<g transform="translate(300, 170)">
<g>
<g transform="translate(25, 20)">
<g>
<text>
coveralls
</text>
</g>
<g transform="translate(0, 20)">
<image height="100" href="https://github.com/coveralls.png" width="100"/>
</g>
</g>
<g transform="translate(140, 0)">
<g transform="translate(0, 0)">
<svg xmlns="http://www.w3.org/2000/svg">
<path d="M1.643 3.143L.427 1.927A.25.25 0 000 2.104V5.75c0 .138.112.25.25.25h3.646a.25.25 0 00.177-.427L2.715 4.215a6.5 6.5 0 11-1.18 4.458.75.75 0 10-1.493.154 8.001 8.001 0 101.6-5.684zM7.75 4a.75.75 0 01.75.75v2.992l2.028.812a.75.75 0 01-.557 1.392l-2.5-1A.75.75 0 017 8.25v-3.5A.75.75 0 017.75 4z" fill-rule="evenodd"/>
</svg>
<text x="25" y="12.5">
Commit: 0
</text>
</g>
<g transform="translate(0, 25)">
<svg height="15" viewBox="0 0 25 25" width="15" xmlns="http://www.w3.org/2000/svg">
<path d="M24 10h-10v-10h-4v10h-10v4h10v10h4v-10h10z" fill-rule="evenodd"/>
</svg>
<text x="25" y="12.5">
Addition: 0
</text>
</g>
<g transform="translate(0, 50)">
<svg height="15" viewBox="0 0 25 25" width="15" xmlns="http://www.w3.org/2000/svg">
<path d="M0 10h24v4h-24z" fill-rule="evenodd"/>
</svg>
<text x="25" y="12.5">
Deletion: 0
</text>
</g>
<g transform="translate(0, 75)">
<svg xmlns="http://www.w3.org/2000/svg">
<path d="M8 1.5a6.5 6.5 0 100 13 6.5 6.5 0 000-13zM0 8a8 8 0 1116 0A8 8 0 010 8zm9 3a1 1 0 11-2 0 1 1 0 012 0zm-.25-6.25a.75.75 0 00-1.5 0v3.5a.75.75 0 001.5 0v-3.5z" fill-rule="evenodd"/>
</svg>
<text x="25" y="12.5">
Issue: 0
</text>
</g>
<g transform="translate(0, 100)">
<svg xmlns="http://www.w3.org/2000/svg">
<path d="M7.177 3.073L9.573.677A.25.25 0 0110 .854v4.792a.25.25 0 01-.427.177L7.177 3.427a.25.25 0 010-.354zM3.75 2.5a.75.75 0 100 1.5.75.75 0 000-1.5zm-2.25.75a2.25 2.25 0 113 2.122v5.256a2.251 2.251 0 11-1.5 0V5.372A2.25 2.25 0 011.5 3.25zM11 2.5h-1V4h1a1 1 0 011 1v5.628a2.251 2.251 0 101.5 0V5A2.5 2.5 0 0011 2.5zm1 10.25a.75.75 0 111.5 0 .75.75 0 01-1.5 0zM3.75 12a.75.75 0 100 1.5.75.75 0 000-1.5z" fill-rule="evenodd"/>
</svg>
<text x="25" y="12.5">
Pr: 0
</text>
</g>
<g transform="translate(0, 125)">
<svg xmlns="http://www.w3.org/2000/svg">
<path d="M1.75 1h8.5c.966 0 1.75.784 1.75 1.75v5.5A1.75 1.75 0 0 1 10.25 10H7.061l-2.574 2.573A1.458 1.458 0 0 1 2 11.543V10h-.25A1.75 1.75 0 0 1 0 8.25v-5.5C0 1.784.784 1 1.75 1ZM1.5 2.75v5.5c0 .138.112.25.25.25h1a.75.75 0 0 1 .75.75v2.19l2.72-2.72a.749.749 0 0 1 .53-.22h3.5a.25.25 0 0 0 .25-.25v-5.5a.25.25 0 0 0-.25-.25h-8.5a.25.25 0 0 0-.25.25Zm13 2a.25.25 0 0 0-.25-.25h-.5a.75.75 0 0 1 0-1.5h.5c.966 0 1.75.784 1.75 1.75v5.5A1.75 1.75 0 0 1 14.25 12H14v1.543a1.458 1.458 0 0 1-2.487 1.03L9.22 12.28a.749.749 0 0 1 .326-1.275.749.749 0 0 1 .734.215l2.22 2.22v-2.19a.75.75 0 0 1 .75-.75h1a.25.25 0 0 0 .25-.25Z" fill-rule="evenodd"/>
</svg>
<text x="25" y="12.5">
Discussion: 2
</text>
</g>
</g>
</g>
</g>
<g transform="translate(600, 170)">
<g>
<g transform="translate(25, 20)">
<g>
<text>
zhijinwuu
</text>
</g>
<g transform="translate(0, 20)">
<image height="100" href="https://github.com/zhijinwuu.png" width="100"/>
</g>
</g>
<g transform="translate(140, 0)">
<g transform="translate(0, 0)">
<svg xmlns="http://www.w3.org/2000/svg">
<path d="M1.643 3.143L.427 1.927A.25.25 0 000 2.104V5.75c0 .138.112.25.25.25h3.646a.25.25 0 00.177-.427L2.715 4.215a6.5 6.5 0 11-1.18 4.458.75.75 0 10-1.493.154 8.001 8.001 0 101.6-5.684zM7.75 4a.75.75 0 01.75.75v2.992l2.028.812a.75.75 0 01-.557 1.392l-2.5-1A.75.75 0 017 8.25v-3.5A.75.75 0 017.75 4z" fill-rule="evenodd"/>
</svg>
<text x="25" y="12.5">
Commit: 0
</text>
</g>
<g transform="translate(0, 25)">
<svg height="15" viewBox="0 0 25 25" width="15" xmlns="http://www.w3.org/2000/svg">
<path d="M24 10h-10v-10h-4v10h-10v4h10v10h4v-10h10z" fill-rule="evenodd"/>
</svg>
<text x="25" y="12.5">
Addition: 0
</text>
</g>
<g transform="translate(0, 50)">
<svg height="15" viewBox="0 0 25 25" width="15" xmlns="http://www.w3.org/2000/svg">
<path d="M0 10h24v4h-24z" fill-rule="evenodd"/>
</svg>
<text x="25" y="12.5">
Deletion: 0
</text>
</g>
<g transform="translate(0, 75)">
<svg xmlns="http://www.w3.org/2000/svg">
<path d="M8 1.5a6.5 6.5 0 100 13 6.5 6.5 0 000-13zM0 8a8 8 0 1116 0A8 8 0 010 8zm9 3a1 1 0 11-2 0 1 1 0 012 0zm-.25-6.25a.75.75 0 00-1.5 0v3.5a.75.75 0 001.5 0v-3.5z" fill-rule="evenodd"/>
</svg>
<text x="25" y="12.5">
Issue: 0
</text>
</g>
<g transform="translate(0, 100)">
<svg xmlns="http://www.w3.org/2000/svg">
<path d="M7.177 3.073L9.573.677A.25.25 0 0110 .854v4.792a.25.25 0 01-.427.177L7.177 3.427a.25.25 0 010-.354zM3.75 2.5a.75.75 0 100 1.5.75.75 0 000-1.5zm-2.25.75a2.25 2.25 0 113 2.122v5.256a2.251 2.251 0 11-1.5 0V5.372A2.25 2.25 0 011.5 3.25zM11 2.5h-1V4h1a1 1 0 011 1v5.628a2.251 2.251 0 101.5 0V5A2.5 2.5 0 0011 2.5zm1 10.25a.75.75 0 111.5 0 .75.75 0 01-1.5 0zM3.75 12a.75.75 0 100 1.5.75.75 0 000-1.5z" fill-rule="evenodd"/>
</svg>
<text x="25" y="12.5">
Pr: 1
</text>
</g>
<g transform="translate(0, 125)">
<svg xmlns="http://www.w3.org/2000/svg">
<path d="M1.75 1h8.5c.966 0 1.75.784 1.75 1.75v5.5A1.75 1.75 0 0 1 10.25 10H7.061l-2.574 2.573A1.458 1.458 0 0 1 2 11.543V10h-.25A1.75 1.75 0 0 1 0 8.25v-5.5C0 1.784.784 1 1.75 1ZM1.5 2.75v5.5c0 .138.112.25.25.25h1a.75.75 0 0 1 .75.75v2.19l2.72-2.72a.749.749 0 0 1 .53-.22h3.5a.25.25 0 0 0 .25-.25v-5.5a.25.25 0 0 0-.25-.25h-8.5a.25.25 0 0 0-.25.25Zm13 2a.25.25 0 0 0-.25-.25h-.5a.75.75 0 0 1 0-1.5h.5c.966 0 1.75.784 1.75 1.75v5.5A1.75 1.75 0 0 1 14.25 12H14v1.543a1.458 1.458 0 0 1-2.487 1.03L9.22 12.28a.749.749 0 0 1 .326-1.275.749.749 0 0 1 .734.215l2.22 2.22v-2.19a.75.75 0 0 1 .75-.75h1a.25.25 0 0 0 .25-.25Z" fill-rule="evenodd"/>
</svg>
<text x="25" y="12.5">
Discussion: 0
</text>
</g>
</g>
</g>
</g>
</g>
</g>
<g transform="translate(0, 740)">
<g transform="translate(25, 10)">
<text>
Project 4 (2023-11-02-2023-11-21)

</text>
</g>
<g transform="translate(0, 25)">
<g transform="translate(0, 0)">
<g>
<g transform="translate(25, 20)">
<g>
<text>
gonzalezjo
</text>
</g>
<g transform="translate(0, 20)">
<image height="100" href="https://github.com/gonzalezjo.png" width="100"/>
</g>
</g>
<g transform="translate(140, 0)">
<g transform="translate(0, 0)">
<svg xmlns="http://www.w3.org/2000/svg">
<path d="M1.643 3.143L.427 1.927A.25.25 0 000 2.104V5.75c0 .138.112.25.25.25h3.646a.25.25 0 00.177-.427L2.715 4.215a6.5 6.5 0 11-1.18 4.458.75.75 0 10-1.493.154 8.001 8.001 0 101.6-5.684zM7.75 4a.75.75 0 01.75.75v2.992l2.028.812a.75.75 0 01-.557 1.392l-2.5-1A.75.75 0 017 8.25v-3.5A.75.75 0 017.75 4z" fill-rule="evenodd"/>
</svg>
<text x="25" y="12.5">
Commit: 1
</text>
</g>
<g transform="translate(0, 25)">
<svg height="15" viewBox="0 0 25 25" width="15" xmlns="http://www.w3.org/2000/svg">
<path d="M24 10h-10v-10h-4v10h-10v4h10v10h4v-10h10z" fill-rule="evenodd"/>
</svg>
<text x="25" y="12.5">
Addition: 0
</text>
</g>
<g transform="translate(0, 50)">
<svg height="15" viewBox="0 0 25 25" width="15" xmlns="http://www.w3.org/2000/svg">
<path d="M0 10h24v4h-24z" fill-rule="evenodd"/>
</svg>
<text x="25" y="12.5">
Deletion: 115
</text>
</g>
<g transform="translate(0, 75)">
<svg xmlns="http://www.w3.org/2000/svg">
<path d="M8 1.5a6.5 6.5 0 100 13 6.5 6.5 0 000-13zM0 8a8 8 0 1116 0A8 8 0 010 8zm9 3a1 1 0 11-2 0 1 1 0 012 0zm-.25-6.25a.75.75 0 00-1.5 0v3.5a.75.75 0 001.5 0v-3.5z" fill-rule="evenodd"/>
</svg>
<text x="25" y="12.5">
Issue: 0
</text>
</g>
<g transform="translate(0, 100)">
<svg xmlns="http://www.w3.org/2000/svg">
<path d="M7.177 3.073L9.573.677A.25.25 0 0110 .854v4.792a.25.25 0 01-.427.177L7.177 3.427a.25.25 0 010-.354zM3.75 2.5a.75.75 0 100 1.5.75.75 0 000-1.5zm-2.25.75a2.25 2.25 0 113 2.122v5.256a2.251 2.251 0 11-1.5 0V5.372A2.25 2.25 0 011.5 3.25zM11 2.5h-1V4h1a1 1 0 011 1v5.628a2.251 2.251 0 101.5 0V5A2.5 2.5 0 0011 2.5zm1 10.25a.75.75 0 111.5 0 .75.75 0 01-1.5 0zM3.75 12a.75.75 0 100 1.5.75.75 0 000-1.5z" fill-rule="evenodd"/>
</svg>
<text x="25" y="12.5">
Pr: 1
</text>
</g>
<g transform="translate(0, 125)">
<svg xmlns="http://www.w3.org/2000/svg">
<path d="M1.75 1h8.5c.966 0 1.75.784 1.75 1.75v5.5A1.75 1.75 0 0 1 10.25 10H7.061l-2.574 2.573A1.458 1.458 0 0 1 2 11.543V10h-.25A1.75 1.75 0 0 1 0 8.25v-5.5C0 1.784.784 1 1.75 1ZM1.5 2.75v5.5c0 .138.112.25.25.25h1a.75.75 0 0 1 .75.75v2.19l2.72-2.72a.749.749 0 0 1 .53-.22h3.5a.25.25 0 0 0 .25-.25v-5.5a.25.25 0 0 0-.25-.25h-8.5a.25.25 0 0 0-.25.25Zm13 2a.25.25 0 0 0-.25-.25h-.5a.75.75 0 0 1 0-1.5h.5c.966 0 1.75.784 1.75 1.75v5.5A1.75 1.75 0 0 1 14.25 12H14v1.543a1.458 1.458 0 0 1-2.487 1.03L9.22 12.28a.749.749 0 0 1 .326-1.275.749.749 0 0 1 .734.215l2.22 2.22v-2.19a.75.75 0 0 1 .75-.75h1a.25.25 0 0 0 .25-.25Z" fill-rule="evenodd"/>
</svg>
<text x="25" y="12.5">
Discussion: 0
</text>
</g>
</g>
</g>
</g>
<g transform="translate(300, 0)">
<g>
<g transform="translate(25, 20)">
<g>
<text>
coveralls
</text>
</g>
<g transform="translate(0, 20)">
<image height="100" href="https://github.com/coveralls.png" width="100"/>
</g>
</g>
<g transform="translate(140, 0)">
<g transform="translate(0, 0)">
<svg xmlns="http://www.w3.org/2000/svg">
<path d="M1.643 3.143L.427 1.927A.25.25 0 000 2.104V5.75c0 .138.112.25.25.25h3.646a.25.25 0 00.177-.427L2.715 4.215a6.5 6.5 0 11-1.18 4.458.75.75 0 10-1.493.154 8.001 8.001 0 101.6-5.684zM7.75 4a.75.75 0 01.75.75v2.992l2.028.812a.75.75 0 01-.557 1.392l-2.5-1A.75.75 0 017 8.25v-3.5A.75.75 0 017.75 4z" fill-rule="evenodd"/>
</svg>
<text x="25" y="12.5">
Commit: 0
</text>
</g>
<g transform="translate(0, 25)">
<svg height="15" viewBox="0 0 25 25" width="15" xmlns="http://www.w3.org/2000/svg">
<path d="M24 10h-10v-10h-4v10h-10v4h10v10h4v-10h10z" fill-rule="evenodd"/>
</svg>
<text x="25" y="12.5">
Addition: 0
</text>
</g>
<g transform="translate(0, 50)">
<svg height="15" viewBox="0 0 25 25" width="15" xmlns="http://www.w3.org/2000/svg">
<path d="M0 10h24v4h-24z" fill-rule="evenodd"/>
</svg>
<text x="25" y="12.5">
Deletion: 0
</text>
</g>
<g transform="translate(0, 75)">
<svg xmlns="http://www.w3.org/2000/svg">
<path d="M8 1.5a6.5 6.5 0 100 13 6.5 6.5 0 000-13zM0 8a8 8 0 1116 0A8 8 0 010 8zm9 3a1 1 0 11-2 0 1 1 0 012 0zm-.25-6.25a.75.75 0 00-1.5 0v3.5a.75.75 0 001.5 0v-3.5z" fill-rule="evenodd"/>
</svg>
<text x="25" y="12.5">
Issue: 0
</text>
</g>
<g transform="translate(0, 100)">
<svg xmlns="http://www.w3.org/2000/svg">
<path d="M7.177 3.073L9.573.677A.25.25 0 0110 .854v4.792a.25.25 0 01-.427.177L7.177 3.427a.25.25 0 010-.354zM3.75 2.5a.75.75 0 100 1.5.75.75 0 000-1.5zm-2.25.75a2.25 2.25 0 113 2.122v5.256a2.251 2.251 0 11-1.5 0V5.372A2.25 2.25 0 011.5 3.25zM11 2.5h-1V4h1a1 1 0 011 1v5.628a2.251 2.251 0 101.5 0V5A2.5 2.5 0 0011 2.5zm1 10.25a.75.75 0 111.5 0 .75.75 0 01-1.5 0zM3.75 12a.75.75 0 100 1.5.75.75 0 000-1.5z" fill-rule="evenodd"/>
</svg>
<text x="25" y="12.5">
Pr: 0
</text>
</g>
<g transform="translate(0, 125)">
<svg xmlns="http://www.w3.org/2000/svg">
<path d="M1.75 1h8.5c.966 0 1.75.784 1.75 1.75v5.5A1.75 1.75 0 0 1 10.25 10H7.061l-2.574 2.573A1.458 1.458 0 0 1 2 11.543V10h-.25A1.75 1.75 0 0 1 0 8.25v-5.5C0 1.784.784 1 1.75 1ZM1.5 2.75v5.5c0 .138.112.25.25.25h1a.75.75 0 0 1 .75.75v2.19l2.72-2.72a.749.749 0 0 1 .53-.22h3.5a.25.25 0 0 0 .25-.25v-5.5a.25.25 0 0 0-.25-.25h-8.5a.25.25 0 0 0-.25.25Zm13 2a.25.25 0 0 0-.25-.25h-.5a.75.75 0 0 1 0-1.5h.5c.966 0 1.75.784 1.75 1.75v5.5A1.75 1.75 0 0 1 14.25 12H14v1.543a1.458 1.458 0 0 1-2.487 1.03L9.22 12.28a.749.749 0 0 1 .326-1.275.749.749 0 0 1 .734.215l2.22 2.22v-2.19a.75.75 0 0 1 .75-.75h1a.25.25 0 0 0 .25-.25Z" fill-rule="evenodd"/>
</svg>
<text x="25" y="12.5">
Discussion: 1
</text>
</g>
</g>
</g>
</g>
<g transform="translate(600, 0)">
<g>
<g transform="translate(25, 20)">
<g>
<text>
ruiminggu
</text>
</g>
<g transform="translate(0, 20)">
<image height="100" href="https://github.com/ruiminggu.png" width="100"/>
</g>
</g>
<g transform="translate(140, 0)">
<g transform="translate(0, 0)">
<svg xmlns="http://www.w3.org/2000/svg">
<path d="M1.643 3.143L.427 1.927A.25.25 0 000 2.104V5.75c0 .138.112.25.25.25h3.646a.25.25 0 00.177-.427L2.715 4.215a6.5 6.5 0 11-1.18 4.458.75.75 0 10-1.493.154 8.001 8.001 0 101.6-5.684zM7.75 4a.75.75 0 01.75.75v2.992l2.028.812a.75.75 0 01-.557 1.392l-2.5-1A.75.75 0 017 8.25v-3.5A.75.75 0 017.75 4z" fill-rule="evenodd"/>
</svg>
<text x="25" y="12.5">
Commit: 0
</text>
</g>
<g transform="translate(0, 25)">
<svg height="15" viewBox="0 0 25 25" width="15" xmlns="http://www.w3.org/2000/svg">
<path d="M24 10h-10v-10h-4v10h-10v4h10v10h4v-10h10z" fill-rule="evenodd"/>
</svg>
<text x="25" y="12.5">
Addition: 0
</text>
</g>
<g transform="translate(0, 50)">
<svg height="15" viewBox="0 0 25 25" width="15" xmlns="http://www.w3.org/2000/svg">
<path d="M0 10h24v4h-24z" fill-rule="evenodd"/>
</svg>
<text x="25" y="12.5">
Deletion: 0
</text>
</g>
<g transform="translate(0, 75)">
<svg xmlns="http://www.w3.org/2000/svg">
<path d="M8 1.5a6.5 6.5 0 100 13 6.5 6.5 0 000-13zM0 8a8 8 0 1116 0A8 8 0 010 8zm9 3a1 1 0 11-2 0 1 1 0 012 0zm-.25-6.25a.75.75 0 00-1.5 0v3.5a.75.75 0 001.5 0v-3.5z" fill-rule="evenodd"/>
</svg>
<text x="25" y="12.5">
Issue: 0
</text>
</g>
<g transform="translate(0, 100)">
<svg xmlns="http://www.w3.org/2000/svg">
<path d="M7.177 3.073L9.573.677A.25.25 0 0110 .854v4.792a.25.25 0 01-.427.177L7.177 3.427a.25.25 0 010-.354zM3.75 2.5a.75.75 0 100 1.5.75.75 0 000-1.5zm-2.25.75a2.25 2.25 0 113 2.122v5.256a2.251 2.251 0 11-1.5 0V5.372A2.25 2.25 0 011.5 3.25zM11 2.5h-1V4h1a1 1 0 011 1v5.628a2.251 2.251 0 101.5 0V5A2.5 2.5 0 0011 2.5zm1 10.25a.75.75 0 111.5 0 .75.75 0 01-1.5 0zM3.75 12a.75.75 0 100 1.5.75.75 0 000-1.5z" fill-rule="evenodd"/>
</svg>
<text x="25" y="12.5">
Pr: 0
</text>
</g>
<g transform="translate(0, 125)">
<svg xmlns="http://www.w3.org/2000/svg">
<path d="M1.75 1h8.5c.966 0 1.75.784 1.75 1.75v5.5A1.75 1.75 0 0 1 10.25 10H7.061l-2.574 2.573A1.458 1.458 0 0 1 2 11.543V10h-.25A1.75 1.75 0 0 1 0 8.25v-5.5C0 1.784.784 1 1.75 1ZM1.5 2.75v5.5c0 .138.112.25.25.25h1a.75.75 0 0 1 .75.75v2.19l2.72-2.72a.749.749 0 0 1 .53-.22h3.5a.25.25 0 0 0 .25-.25v-5.5a.25.25 0 0 0-.25-.25h-8.5a.25.25 0 0 0-.25.25Zm13 2a.25.25 0 0 0-.25-.25h-.5a.75.75 0 0 1 0-1.5h.5c.966 0 1.75.784 1.75 1.75v5.5A1.75 1.75 0 0 1 14.25 12H14v1.543a1.458 1.458 0 0 1-2.487 1.03L9.22 12.28a.749.749 0 0 1 .326-1.275.749.749 0 0 1 .734.215l2.22 2.22v-2.19a.75.75 0 0 1 .75-.75h1a.25.25 0 0 0 .25-.25Z" fill-rule="evenodd"/>
</svg>
<text x="25" y="12.5">
Discussion: 1
</text>
</g>
</g>
</g>
</g>
</g>
</g>
<g transform="translate(0, 940)">
<g transform="translate(25, 10)">
<text>
Project 5 (2023-11-21-2023-12-13)

</text>
</g>
<g transform="translate(0, 25)">
<g transform="translate(0, 0)">
<g>
<g transform="translate(25, 20)">
<g>
<text>
zhijinwuu
</text>
</g>
<g transform="translate(0, 20)">
<image height="100" href="https://github.com/zhijinwuu.png" width="100"/>
</g>
</g>
<g transform="translate(140, 0)">
<g transform="translate(0, 0)">
<svg xmlns="http://www.w3.org/2000/svg">
<path d="M1.643 3.143L.427 1.927A.25.25 0 000 2.104V5.75c0 .138.112.25.25.25h3.646a.25.25 0 00.177-.427L2.715 4.215a6.5 6.5 0 11-1.18 4.458.75.75 0 10-1.493.154 8.001 8.001 0 101.6-5.684zM7.75 4a.75.75 0 01.75.75v2.992l2.028.812a.75.75 0 01-.557 1.392l-2.5-1A.75.75 0 017 8.25v-3.5A.75.75 0 017.75 4z" fill-rule="evenodd"/>
</svg>
<text x="25" y="12.5">
Commit: 0
</text>
</g>
<g transform="translate(0, 25)">
<svg height="15" viewBox="0 0 25 25" width="15" xmlns="http://www.w3.org/2000/svg">
<path d="M24 10h-10v-10h-4v10h-10v4h10v10h4v-10h10z" fill-rule="evenodd"/>
</svg>
<text x="25" y="12.5">
Addition: 0
</text>
</g>
<g transform="translate(0, 50)">
<svg height="15" viewBox="0 0 25 25" width="15" xmlns="http://www.w3.org/2000/svg">
<path d="M0 10h24v4h-24z" fill-rule="evenodd"/>
</svg>
<text x="25" y="12.5">
Deletion: 0
</text>
</g>
<g transform="translate(0, 75)">
<svg xmlns="http://www.w3.org/2000/svg">
<path d="M8 1.5a6.5 6.5 0 100 13 6.5 6.5 0 000-13zM0 8a8 8 0 1116 0A8 8 0 010 8zm9 3a1 1 0 11-2 0 1 1 0 012 0zm-.25-6.25a.75.75 0 00-1.5 0v3.5a.75.75 0 001.5 0v-3.5z" fill-rule="evenodd"/>
</svg>
<text x="25" y="12.5">
Issue: 0
</text>
</g>
<g transform="translate(0, 100)">
<svg xmlns="http://www.w3.org/2000/svg">
<path d="M7.177 3.073L9.573.677A.25.25 0 0110 .854v4.792a.25.25 0 01-.427.177L7.177 3.427a.25.25 0 010-.354zM3.75 2.5a.75.75 0 100 1.5.75.75 0 000-1.5zm-2.25.75a2.25 2.25 0 113 2.122v5.256a2.251 2.251 0 11-1.5 0V5.372A2.25 2.25 0 011.5 3.25zM11 2.5h-1V4h1a1 1 0 011 1v5.628a2.251 2.251 0 101.5 0V5A2.5 2.5 0 0011 2.5zm1 10.25a.75.75 0 111.5 0 .75.75 0 01-1.5 0zM3.75 12a.75.75 0 100 1.5.75.75 0 000-1.5z" fill-rule="evenodd"/>
</svg>
<text x="25" y="12.5">
Pr: 1
</text>
</g>
<g transform="translate(0, 125)">
<svg xmlns="http://www.w3.org/2000/svg">
<path d="M1.75 1h8.5c.966 0 1.75.784 1.75 1.75v5.5A1.75 1.75 0 0 1 10.25 10H7.061l-2.574 2.573A1.458 1.458 0 0 1 2 11.543V10h-.25A1.75 1.75 0 0 1 0 8.25v-5.5C0 1.784.784 1 1.75 1ZM1.5 2.75v5.5c0 .138.112.25.25.25h1a.75.75 0 0 1 .75.75v2.19l2.72-2.72a.749.749 0 0 1 .53-.22h3.5a.25.25 0 0 0 .25-.25v-5.5a.25.25 0 0 0-.25-.25h-8.5a.25.25 0 0 0-.25.25Zm13 2a.25.25 0 0 0-.25-.25h-.5a.75.75 0 0 1 0-1.5h.5c.966 0 1.75.784 1.75 1.75v5.5A1.75 1.75 0 0 1 14.25 12H14v1.543a1.458 1.458 0 0 1-2.487 1.03L9.22 12.28a.749.749 0 0 1 .326-1.275.749.749 0 0 1 .734.215l2.22 2.22v-2.19a.75.75 0 0 1 .75-.75h1a.25.25 0 0 0 .25-.25Z" fill-rule="evenodd"/>
</svg>
<text x="25" y="12.5">
Discussion: 0
</text>
</g>
</g>
</g>
</g>
</g>
</g>
</svg>